<svg width="38" height="38" viewBox="0 0 38 38" fill="none" xmlns="http://www.w3.org/2000/svg">
<path d="M19 38C29.4934 38 38 29.4934 38 19C38 8.50659 29.4934 0 19 0C8.50659 0 0 8.50659 0 19C0 29.4934 8.50659 38 19 38Z" fill="#039BE5"/>
<path d="M8.69425 18.5882L27.0134 11.5249C27.8637 11.2178 28.6063 11.7323 28.3308 13.018L28.3323 13.0164L25.2132 27.7113C24.982 28.7532 24.3629 29.0065 23.4968 28.5157L18.7468 25.0149L16.4558 27.2221C16.2024 27.4754 15.9887 27.6892 15.4978 27.6892L15.8351 22.8553L24.6384 14.9022C25.0216 14.5649 24.5529 14.3749 24.0478 14.7106L13.1688 21.5601L8.47892 20.0971C7.46084 19.7741 7.43867 19.079 8.69425 18.5882Z" fill="white"/>
</svg>
