<svg width="38" height="38" viewBox="0 0 38 38" fill="none" xmlns="http://www.w3.org/2000/svg">
<path d="M19 38C29.4934 38 38 29.4934 38 19C38 8.50659 29.4934 0 19 0C8.50659 0 0 8.50659 0 19C0 29.4934 8.50659 38 19 38Z" fill="#4D76A1"/>
<path fill-rule="evenodd" clip-rule="evenodd" d="M18.2825 27.3333H19.7738C19.7738 27.3333 20.2242 27.2838 20.4542 27.0359C20.6659 26.8083 20.6591 26.3809 20.6591 26.3809C20.6591 26.3809 20.63 24.3799 21.5587 24.0852C22.4742 23.795 23.6498 26.0192 24.8958 26.8744C25.8381 27.5216 26.554 27.3797 26.554 27.3797L29.8858 27.3333C29.8858 27.3333 31.6287 27.2259 30.8023 25.8556C30.7345 25.7435 30.321 24.8419 28.3251 22.9892C26.236 21.0502 26.5158 21.3638 29.0323 18.0097C30.5649 15.9671 31.1775 14.72 30.9862 14.1859C30.8036 13.6772 29.6765 13.8116 29.6765 13.8116L25.9251 13.835C25.9251 13.835 25.647 13.7971 25.4408 13.9204C25.2392 14.0413 25.1095 14.3231 25.1095 14.3231C25.1095 14.3231 24.5158 15.9038 23.7239 17.248C22.0535 20.0846 21.3856 20.2343 21.1126 20.0582C20.4776 19.6477 20.6361 18.4091 20.6361 17.5291C20.6361 14.7803 21.053 13.6342 19.8242 13.3375C19.4164 13.2389 19.1164 13.1739 18.0735 13.1634C16.735 13.1495 15.6021 13.1675 14.9606 13.4818C14.5338 13.6907 14.2046 14.1564 14.4051 14.1832C14.6531 14.2164 15.2146 14.3346 15.5123 14.74C15.8967 15.2629 15.8832 16.4375 15.8832 16.4375C15.8832 16.4375 16.104 19.6734 15.3674 20.0754C14.8617 20.3511 14.168 19.7882 12.6788 17.2148C11.9157 15.8966 11.3396 14.4396 11.3396 14.4396C11.3396 14.4396 11.2285 14.1673 11.0304 14.0216C10.7899 13.8452 10.4539 13.789 10.4539 13.789L6.88919 13.8123C6.88919 13.8123 6.35406 13.8272 6.15762 14.0599C5.98285 14.2669 6.14373 14.695 6.14373 14.695C6.14373 14.695 8.93456 21.2243 12.0946 24.5147C14.9921 27.5314 18.2825 27.3333 18.2825 27.3333Z" fill="white"/>
</svg>
