<svg width="38" height="38" viewBox="0 0 38 38" fill="none" xmlns="http://www.w3.org/2000/svg">
<g clip-path="url(#clip0_137_1187)">
<path d="M18.9898 0.00977476C8.50261 0.012 0.00283342 8.51541 0.00505867 19.0026C0.00580041 22.634 1.04788 26.189 3.00758 29.2462L0.0532723 36.9113C-0.104053 37.319 0.0988899 37.777 0.506555 37.9343C0.597716 37.9695 0.694514 37.9875 0.792202 37.9874C0.882844 37.9878 0.972818 37.9723 1.05804 37.9415L8.97005 35.1169C17.8719 40.6611 29.5828 37.9391 35.1269 29.0371C40.6711 20.1352 37.9491 8.42439 29.0472 2.88027C26.0296 1.00083 22.5449 0.00628854 18.9898 0.00977476Z" fill="#55CD6C"/>
<path d="M28.0426 22.2442C28.0426 22.2442 26.1042 21.2948 24.8904 20.6619C23.5169 19.9545 21.9029 21.279 21.1433 22.0322C19.9612 21.5781 18.8815 20.8928 17.9675 20.0162C17.0908 19.1023 16.4054 18.0226 15.9515 16.8404C16.7047 16.0793 18.026 14.4668 17.3219 13.0933C16.6968 11.878 15.7395 9.94114 15.7395 9.93958C15.6052 9.67299 15.3323 9.50469 15.0337 9.50439H13.4513C11.1469 9.90242 9.47134 11.9131 9.49537 14.2516C9.49537 16.7359 12.4687 21.5085 14.4736 23.5149C16.4786 25.5213 21.251 28.4932 23.7369 28.4932C26.0754 28.5172 28.0861 26.8416 28.4841 24.5372V22.9548C28.4844 22.6531 28.3132 22.3775 28.0426 22.2442Z" fill="#FAFAFA"/>
</g>
<defs>
<clipPath id="clip0_137_1187">
<rect width="38" height="38" fill="white"/>
</clipPath>
</defs>
</svg>
